<svg width="17" height="21" viewBox="0 0 17 21" fill="none" xmlns="http://www.w3.org/2000/svg">
<path d="M8.99781 0.953262C7.89281 0.953262 6.99781 1.84826 6.99781 2.95326H1.9978C1.4458 2.95326 0.997803 3.40125 0.997803 3.95325C0.997803 4.50525 1.4458 4.95325 1.9978 4.95325H15.9978C16.5498 4.95325 16.9978 4.50525 16.9978 3.95325C16.9978 3.40125 16.5498 2.95326 15.9978 2.95326H10.9978C10.9978 1.84826 10.1028 0.953262 8.99781 0.953262ZM1.9978 6.95324V16.9532C1.9978 19.1432 3.80281 20.9222 5.99781 20.9222L12.0288 20.9532C14.2238 20.9532 15.9978 19.1482 15.9978 16.9532V6.95324H1.9978ZM6.99781 9.95323C7.54981 9.95323 7.99781 10.4012 7.99781 10.9532V16.9532C7.99781 17.5052 7.54981 17.9532 6.99781 17.9532C6.44581 17.9532 5.99781 17.5052 5.99781 16.9532V10.9532C5.99781 10.4012 6.44581 9.95323 6.99781 9.95323ZM10.9978 9.95323C11.5498 9.95323 11.9978 10.4012 11.9978 10.9532V16.9532C11.9978 17.5052 11.5498 17.9532 10.9978 17.9532C10.4458 17.9532 9.99781 17.5052 9.99781 16.9532V10.9532C9.99781 10.4012 10.4458 9.95323 10.9978 9.95323Z" fill="white"/>
</svg>
