<svg width="24" height="24" viewBox="0 0 24 24" fill="none" xmlns="http://www.w3.org/2000/svg">
<path d="M16.43 1.95449C15.142 1.98749 13.899 2.58247 12.81 3.67247L11.281 5.20247C10.891 5.59247 10.891 6.21747 11.281 6.60747C11.671 6.99747 12.327 6.99747 12.717 6.60747L14.214 5.07747C15.663 3.62747 17.27 3.48247 18.863 5.07747C20.457 6.67147 20.312 8.27948 18.863 9.72948L15.837 12.7585C14.388 14.2085 12.781 14.3525 11.188 12.7585L10.751 12.3215C9.80995 11.3795 8.40496 12.7845 9.34696 13.7265L9.78396 14.1635C12.22 16.6015 15.063 16.3425 17.241 14.1635L20.267 11.1345C22.445 8.95548 22.704 6.11047 20.267 3.67247C19.049 2.45347 17.717 1.92249 16.43 1.95449ZM10.189 8.01247C8.98796 8.09047 7.81895 8.66648 6.75695 9.72948L3.73095 12.7585C1.29395 15.1965 1.55295 18.0415 3.73095 20.2205C5.90795 22.3995 8.75195 22.6585 11.188 20.2205L12.717 18.6905C13.107 18.3005 13.107 17.6755 12.717 17.2855C12.327 16.8955 11.671 16.8955 11.281 17.2855L9.78396 18.8155C8.18996 20.4105 6.58396 20.2655 5.13496 18.8155C3.68596 17.3655 3.54096 15.7585 5.13496 14.1635L8.16096 11.1345C8.89596 10.3995 9.62196 10.0555 10.314 10.0105C11.151 9.95548 12.029 10.3525 12.81 11.1345L13.247 11.5715C13.637 11.9615 14.2609 11.9615 14.6509 11.5715C15.0409 11.1815 15.0409 10.5565 14.6509 10.1665L14.214 9.72948C13.057 8.57148 11.663 7.91547 10.189 8.01247Z" fill="white" fill-opacity="0.8"/>
</svg>
