<svg width="24" height="24" viewBox="0 0 24 24" fill="none" xmlns="http://www.w3.org/2000/svg">
<path d="M7.9978 2.01416C5.7887 2.01416 3.9978 3.80506 3.9978 6.01416V18.0142C3.9978 20.2233 5.7887 22.0142 7.9978 22.0142H15.9978C18.2069 22.0142 19.9978 20.2233 19.9978 18.0142V6.01416C19.9978 3.80506 18.2069 2.01416 15.9978 2.01416H7.9978ZM7.9978 4.01416H15.9978C17.1024 4.01416 17.9978 4.90956 17.9978 6.01416V18.0142C17.9978 19.1188 17.1024 20.0142 15.9978 20.0142H7.9978C6.8932 20.0142 5.9978 19.1188 5.9978 18.0142V6.01416C5.9978 4.90956 6.8932 4.01416 7.9978 4.01416ZM8.9978 5.01416C8.4455 5.01416 7.9978 5.46186 7.9978 6.01416C7.9978 6.56646 8.4455 7.01416 8.9978 7.01416H9.9978C10.5501 7.01416 10.9978 6.56646 10.9978 6.01416C10.9978 5.46186 10.5501 5.01416 9.9978 5.01416H8.9978ZM8.9978 8.01416C8.4455 8.01416 7.9978 8.46186 7.9978 9.01416C7.9978 9.56646 8.4455 10.0142 8.9978 10.0142H9.9978C10.5501 10.0142 10.9978 9.56646 10.9978 9.01416C10.9978 8.46186 10.5501 8.01416 9.9978 8.01416H8.9978ZM8.9978 11.0142C8.4455 11.0142 7.9978 11.4619 7.9978 12.0142C7.9978 12.5665 8.4455 13.0142 8.9978 13.0142H9.9978C10.5501 13.0142 10.9978 12.5665 10.9978 12.0142C10.9978 11.4619 10.5501 11.0142 9.9978 11.0142H8.9978ZM8.9978 14.0142C8.4455 14.0142 7.9978 14.4619 7.9978 15.0142V17.0142C7.9978 17.5665 8.4455 18.0142 8.9978 18.0142H9.9978C10.5501 18.0142 10.9978 17.5665 10.9978 17.0142V15.0142C10.9978 14.4619 10.5501 14.0142 9.9978 14.0142H8.9978Z" fill="white" fill-opacity="0.8"/>
</svg>
