<svg width="21" height="19" viewBox="0 0 21 19" fill="none" xmlns="http://www.w3.org/2000/svg">
<path d="M5.9989 0.990723C2.9613 0.990723 0.498901 3.45273 0.498901 6.49073C0.498901 9.67474 2.3124 12.6787 5.3114 15.4287C6.335 16.3667 7.4371 17.1897 8.5301 17.9287C8.9132 18.1867 9.2715 18.4208 9.5927 18.6158C9.7885 18.7348 9.9176 18.8208 9.9989 18.8658C10.3009 19.0338 10.6969 19.0338 10.9989 18.8658C11.0802 18.8208 11.2093 18.7348 11.4051 18.6158C11.7263 18.4208 12.0846 18.1867 12.4677 17.9287C13.5607 17.1897 14.6628 16.3667 15.6864 15.4287C18.6854 12.6787 20.4989 9.67474 20.4989 6.49073C20.4989 3.45273 18.0365 0.990723 14.9989 0.990723C13.2737 0.990723 11.5893 1.93074 10.5301 3.30274C9.4973 1.90674 7.8188 0.990723 5.9989 0.990723ZM5.9989 2.99073C7.2128 2.99073 8.3464 3.60674 8.9989 4.55274C9.0623 4.64474 9.5622 5.37974 9.6551 5.52174C10.042 6.11474 10.9052 6.13275 11.3114 5.55274C11.4102 5.41174 11.9305 4.67972 11.9989 4.58472C12.68 3.63272 13.8721 2.99073 14.9989 2.99073C16.9319 2.99073 18.4989 4.55773 18.4989 6.49073C18.4989 8.99374 16.9374 11.5207 14.3114 13.9287C13.3662 14.7947 12.359 15.5848 11.3427 16.2718C11.0354 16.4798 10.7613 16.6418 10.4989 16.8028C10.2365 16.6418 9.9624 16.4798 9.6551 16.2718C8.6388 15.5848 7.6316 14.7947 6.6864 13.9287C4.0604 11.5207 2.4989 8.99374 2.4989 6.49073C2.4989 4.55773 4.0659 2.99073 5.9989 2.99073Z" fill="white"/>
</svg>
