<svg width="17" height="20" viewBox="0 0 17 20" fill="none" xmlns="http://www.w3.org/2000/svg">
<path d="M5.02832 -0.000976562C3.37132 -0.000976562 2.02832 1.34212 2.02832 2.99902V17.999H1.02832C0.47632 17.999 0.0283203 18.4467 0.0283203 18.999C0.0283203 19.5513 0.47632 19.999 1.02832 19.999H3.02832H13.0283H15.0283C15.5803 19.999 16.0283 19.5513 16.0283 18.999C16.0283 18.4467 15.5803 17.999 15.0283 17.999H14.0283V2.99902C14.0283 1.34212 12.6853 -0.000976562 11.0283 -0.000976562H5.02832ZM5.02832 1.99902H11.0283C11.5803 1.99902 12.0283 2.44672 12.0283 2.99902V17.999H4.02832V2.99902C4.02832 2.44672 4.47632 1.99902 5.02832 1.99902ZM10.0283 8.99902C9.47632 8.99902 9.02832 9.44672 9.02832 9.99902C9.02832 10.5513 9.47632 10.999 10.0283 10.999C10.5803 10.999 11.0283 10.5513 11.0283 9.99902C11.0283 9.44672 10.5803 8.99902 10.0283 8.99902Z" fill="white"/>
</svg>
