<svg width="25" height="24" viewBox="0 0 25 24" fill="none" xmlns="http://www.w3.org/2000/svg">
<path d="M12.4989 1.95319C11.14 1.95319 9.9611 2.60519 9.0301 3.57819C7.6759 3.54819 6.3581 3.90619 5.4051 4.85919C4.4522 5.81219 4.0934 7.13019 4.1239 8.48419C3.1506 9.41519 2.4989 10.5942 2.4989 11.9532C2.4989 13.3122 3.1506 14.4912 4.1239 15.4222C4.0934 16.7762 4.4522 18.0942 5.4051 19.0472C6.3582 20.0002 7.6759 20.3592 9.0301 20.3282C9.9611 21.3012 11.14 21.9532 12.4989 21.9532C13.8578 21.9532 15.0367 21.3012 15.9677 20.3282C17.3219 20.3582 18.6397 20.0002 19.5927 19.0472C20.5456 18.0942 20.9044 16.7762 20.8739 15.4222C21.8472 14.4912 22.4989 13.3122 22.4989 11.9532C22.4989 10.5942 21.8472 9.41519 20.8739 8.48419C20.9044 7.13019 20.5456 5.81219 19.5927 4.85919C18.6396 3.90619 17.3219 3.54719 15.9677 3.57819C15.0367 2.60519 13.8578 1.95319 12.4989 1.95319ZM15.4989 8.95319C15.7548 8.95319 16.0224 9.03919 16.2177 9.23419C16.6082 9.62519 16.6082 10.2812 16.2177 10.6722L12.2177 14.6722C11.8271 15.0622 11.1707 15.0622 10.7801 14.6722L8.7801 12.6722C8.3896 12.2812 8.3896 11.6252 8.7801 11.2342C9.1707 10.8442 9.8271 10.8442 10.2177 11.2342L11.4989 12.5152L14.7801 9.23419C14.9754 9.03919 15.243 8.95319 15.4989 8.95319Z" fill="white"/>
</svg>
