<svg width="21" height="20" viewBox="0 0 21 20" fill="none" xmlns="http://www.w3.org/2000/svg">
<path d="M1.68082 -0.000943272C1.12852 -0.00544327 0.685319 0.446857 0.680819 0.999057C0.676319 1.55136 1.12852 1.99456 1.68082 1.99906C2.41842 2.00506 2.98702 2.50976 3.46202 3.43656C3.84202 4.17776 4.00993 5.03436 4.02463 5.12406L5.21202 11.8111C5.57202 13.6131 7.30403 14.9991 9.11883 14.9991H17.6808C18.2328 14.9991 18.6808 14.5511 18.6808 13.9991C18.6808 13.4471 18.2328 12.9991 17.6808 12.9991H9.11883C8.25733 12.9991 7.34973 12.2811 7.18083 11.4371L7.11833 10.9991H16.6808C18.1568 10.9991 19.4618 9.61005 19.6808 8.15505L20.6498 3.18656C20.7738 2.56776 20.3118 1.99916 19.6808 1.99906H4.96202C4.20102 0.836757 3.06412 0.0102567 1.68082 -0.000943272ZM5.83702 3.99906H18.4618L17.7118 7.81156C17.6198 8.41506 17.0588 8.99906 16.6808 8.99906H6.74333L6.02463 4.81156C5.99173 4.61126 5.92682 4.30246 5.83702 3.99906ZM8.18083 16.9991C7.35243 16.9991 6.68083 17.6711 6.68083 18.4991C6.68083 19.3271 7.35243 19.9991 8.18083 19.9991C9.00883 19.9991 9.68083 19.3271 9.68083 18.4991C9.68083 17.6711 9.00883 16.9991 8.18083 16.9991ZM16.1808 16.9991C15.3528 16.9991 14.6808 17.6711 14.6808 18.4991C14.6808 19.3271 15.3528 19.9991 16.1808 19.9991C17.0088 19.9991 17.6808 19.3271 17.6808 18.4991C17.6808 17.6711 17.0088 16.9991 16.1808 16.9991Z" fill="white"/>
</svg>
